<svg xmlns="http://www.w3.org/2000/svg" viewBox="0 0 703.62 93.76"><title>tutorweb_logo</title><g id="Layer_2" data-name="Layer 2"><g id="Layer_1-2" data-name="Layer 1"><path d="M29.67,17.48H0V0H80.78V17.48H51.12V92.7H29.67Z"/><path d="M161,21.45V92.7h-19.6V84.23a27.43,27.43,0,0,1-9.8,7.08,30.73,30.73,0,0,1-12.32,2.45q-14,0-22.25-8.08t-8.21-24V21.45h20.66V58.67q0,17.22,14.44,17.21,7.41,0,11.92-4.83t4.5-14.37V21.45Z"/><path d="M226.2,89.26a21.34,21.34,0,0,1-7.49,3.38,37.79,37.79,0,0,1-9.33,1.12q-12.72,0-19.67-6.49t-7-19.07V38.94h-11V23h11V5.69h20.66V23h17.74v15.9H203.42v29q0,4.5,2.32,7a8.54,8.54,0,0,0,6.55,2.45,13.23,13.23,0,0,0,8.34-2.65Z"/><path d="M249.31,89.06a35,35,0,0,1-14-13,36,36,0,0,1-5-18.94,36,36,0,0,1,5-18.94,35,35,0,0,1,14-13,45.5,45.5,0,0,1,40.32,0,35,35,0,0,1,13.91,13,36,36,0,0,1,5,18.94,36,36,0,0,1-5,18.94,35,35,0,0,1-13.91,13,45.59,45.59,0,0,1-40.32,0Zm33.24-17.61q5.1-5.37,5.1-14.37t-5.1-14.37a17.2,17.2,0,0,0-13.05-5.36,17.41,17.41,0,0,0-13.11,5.36q-5.16,5.37-5.16,14.37t5.16,14.37a17.44,17.44,0,0,0,13.11,5.36A17.23,17.23,0,0,0,282.55,71.45Z"/><path d="M352.08,23a37.17,37.17,0,0,1,14.5-2.65V39.47c-2.3-.18-3.84-.27-4.64-.27q-8.87,0-13.9,5t-5,14.9V92.7H322.34V21.45h19.74v9.41A22.92,22.92,0,0,1,352.08,23Z"/><path d="M517.82,0,487.49,92.7h-23l-20.4-62.77L423,92.7H400.08L369.62,0h22.25L412.8,65.16,434.65,0h19.86L475.7,65.69,497.29,0Z"/><path d="M601.52,75.49V92.7H529.74V0h70V17.22H551.06V37.35h43V54h-43V75.49Z"/><path d="M699.12,52.91a23.19,23.19,0,0,1,4.5,14.5q0,12.18-9.47,18.74T666.54,92.7H618.6V0h45.29q17,0,26,6.49A20.54,20.54,0,0,1,699,24.1a22.28,22.28,0,0,1-12.31,20.4A24.44,24.44,0,0,1,699.12,52.91Zm-59.2-36.75V38h21.32q7.95,0,12-2.78A9.28,9.28,0,0,0,677.4,27a9.12,9.12,0,0,0-4.11-8.15q-4.1-2.72-12-2.71Zm37.81,57.61Q682,71,682,65.16,682,53.64,665,53.64h-25V76.55h25Q673.43,76.55,677.73,73.77Z"/></g></g></svg>